<svg xmlns="http://www.w3.org/2000/svg" width="16" height="16" viewBox="0 0 16 16" fill="none">
    <path d="M8 0C8.41027 0 8.74841 0.308832 8.79462 0.706703L8.8 0.8L8.80028 1.85117C11.5847 2.21 13.7905 4.41599 14.1489 7.20053L15.2 7.2C15.6418 7.2 16 7.55817 16 8C16 8.41027 15.6912 8.74841 15.2933 8.79462L15.2 8.8L14.1488 8.80028C13.79 11.5844 11.5844 13.79 8.80028 14.1488L8.8 15.2C8.8 15.6418 8.44183 16 8 16C7.58973 16 7.25159 15.6912 7.20538 15.2933L7.2 15.2L7.20053 14.1489C4.41599 13.7905 2.21 11.5847 1.85117 8.80028L0.8 8.8C0.358172 8.8 0 8.44183 0 8C0 7.58973 0.308832 7.25159 0.706703 7.20538L0.8 7.2L1.85107 7.20053C2.20958 4.41572 4.41572 2.20958 7.20053 1.85107L7.2 0.8C7.2 0.358172 7.55817 0 8 0ZM8 3.4C5.45949 3.4 3.4 5.45949 3.4 8C3.4 10.5405 5.45949 12.6 8 12.6C10.5405 12.6 12.6 10.5405 12.6 8C12.6 5.45949 10.5405 3.4 8 3.4ZM8 4.8C9.76731 4.8 11.2 6.23269 11.2 8C11.2 9.76731 9.76731 11.2 8 11.2C6.23269 11.2 4.8 9.76731 4.8 8C4.8 6.23269 6.23269 4.8 8 4.8Z" fill="white"></path>
</svg>